<svg id="SvgjsSvg1298" width="550" height="550" xmlns="http://www.w3.org/2000/svg" version="1.1" xmlns:xlink="http://www.w3.org/1999/xlink" xmlns:svgjs="http://svgjs.com/svgjs"><defs id="SvgjsDefs1299"></defs><g id="SvgjsG1300"><svg xmlns="http://www.w3.org/2000/svg" enable-background="new 0 0 390 390" viewBox="0 0 390 390" width="550" height="550"><path fill="#edf3ff" d="M375.886 13.014a989.38 989.38 0 0 1 0 233.617c-.473 3.991-3.551 6.858-6.862 6.437l-149.962-18.945c-3.294-.42-5.638-3.438-5.244-6.761a826.171 826.171 0 0 0 0-195.08c-.394-3.324 1.95-6.338 5.244-6.76L369.024 6.576c3.31-.422 6.388 2.447 6.862 6.437z" class="coloredf3ff svgShape"></path><path fill="#fabe25" d="M357.951 33.793c.79 7.931 1.481 15.87 2.075 23.813.196 2.627-1.468 4.88-3.717 5.038L241.69 70.64c-2.23.154-4.19-1.578-4.36-3.867a845.853 845.853 0 0 0-1.812-20.79c-.227-2.284 1.402-4.33 3.626-4.566l114.273-11.945c2.243-.238 4.272 1.7 4.533 4.321z" class="colorfabe25 svgShape"></path><path fill="#ffffff" d="M259.208 59.757c-.233-2.88-.48-5.76-.743-8.639l-3.23.294-.183-1.999 8.793-.82c.063.672.125 1.346.186 2.019l-3.23.294c.263 2.886.511 5.773.745 8.662l-2.338.19zM270.797 59.006a5.758 5.758 0 0 1-2.227-.238 5.315 5.315 0 0 1-3.166-2.69 5.858 5.858 0 0 1-.6-2.171c-.07-.809.001-1.554.215-2.25a5.358 5.358 0 0 1 2.646-3.189 5.786 5.786 0 0 1 2.16-.62c.796-.073 1.543-.007 2.236.203a5.257 5.257 0 0 1 3.181 2.682c.336.655.54 1.395.61 2.211a5.976 5.976 0 0 1-.219 2.277 5.278 5.278 0 0 1-1.012 1.886 5.18 5.18 0 0 1-1.657 1.312c-.646.327-1.37.521-2.167.587zm-.174-2.112c.453-.037.861-.157 1.227-.358.366-.2.68-.472.942-.81.262-.34.454-.725.577-1.155a3.92 3.92 0 0 0 .118-1.42 3.909 3.909 0 0 0-.361-1.38c-.196-.4-.452-.75-.769-1.036a3.033 3.033 0 0 0-1.067-.636 3.05 3.05 0 0 0-1.27-.14 3.07 3.07 0 0 0-1.232.368c-.37.205-.682.475-.937.813a3.447 3.447 0 0 0-.566 1.15 3.89 3.89 0 0 0-.116 1.41c.044.513.164.969.358 1.37.195.401.446.75.757 1.035.31.29.663.5 1.063.64.399.138.824.187 1.276.149zM282.153 57.9a888.392 888.392 0 0 0-.952-10.927l4.584-.428c1.096-.103 2.083.035 2.96.414.88.379 1.591.96 2.138 1.743.545.783.868 1.732.965 2.849.097 1.115-.056 2.108-.458 2.973a4.96 4.96 0 0 1-1.803 2.086c-.8.525-1.748.83-2.845.919l-4.589.371zm2.183-2.257 2.12-.176c.674-.058 1.246-.245 1.72-.563.47-.318.822-.75 1.052-1.293.23-.543.315-1.16.254-1.854-.06-.706-.252-1.3-.571-1.79-.32-.49-.74-.851-1.26-1.084-.522-.23-1.118-.321-1.79-.257l-2.12.193c.207 2.273.405 4.548.595 6.824zM298.98 56.731a5.604 5.604 0 0 1-2.228-.251 5.307 5.307 0 0 1-1.86-1.062 5.528 5.528 0 0 1-1.313-1.723 6.208 6.208 0 0 1-.606-2.242c-.072-.832-.004-1.606.208-2.321a5.554 5.554 0 0 1 .997-1.917c.452-.564.999-1.019 1.64-1.367.641-.348 1.36-.559 2.159-.633a5.66 5.66 0 0 1 2.237.216 5.16 5.16 0 0 1 1.863 1.043 5.51 5.51 0 0 1 1.327 1.733c.337.68.544 1.44.617 2.283a6.345 6.345 0 0 1-.213 2.348 5.487 5.487 0 0 1-1.007 1.943 5.17 5.17 0 0 1-1.654 1.35c-.647.337-1.369.535-2.167.6zm-.178-2.18c.452-.037.86-.161 1.226-.366a3.07 3.07 0 0 0 .94-.834 3.52 3.52 0 0 0 .574-1.19 4.16 4.16 0 0 0 .113-1.465 4.165 4.165 0 0 0-.365-1.423 3.49 3.49 0 0 0-.771-1.073 3.029 3.029 0 0 0-1.07-.658 2.962 2.962 0 0 0-1.271-.15 2.944 2.944 0 0 0-2.165 1.213 3.57 3.57 0 0 0-.564 1.186 4.13 4.13 0 0 0-.112 1.456c.046.527.167 1 .362 1.414.196.414.449.773.76 1.07.31.298.665.52 1.065.663.399.14.825.196 1.278.157zM310.336 55.62c-.304-3.76-.632-7.518-.982-11.275l2.35-.219c.285 3.056.555 6.113.81 9.171l5.035-.42c.06.715.118 1.43.176 2.145l-7.389.598zM319.052 54.915c-.307-3.796-.638-7.59-.992-11.382l2.35-.22c.355 3.802.686 7.606.994 11.411l-2.352.19zM327.135 54.459a7.4 7.4 0 0 1-2.36-.18c-.766-.186-1.39-.456-1.875-.81.21-.686.42-1.373.627-2.06.453.314.987.558 1.602.73a5.156 5.156 0 0 0 1.831.187c.463-.038.83-.125 1.105-.257.274-.134.471-.297.591-.488a1.03 1.03 0 0 0 .149-.65c-.026-.306-.152-.542-.38-.704a2.456 2.456 0 0 0-.882-.372c-.36-.086-.751-.16-1.174-.23a13.302 13.302 0 0 1-1.28-.269 4.826 4.826 0 0 1-1.206-.489 2.67 2.67 0 0 1-.92-.891c-.242-.378-.39-.868-.444-1.467a3.572 3.572 0 0 1 .3-1.83c.258-.567.687-1.041 1.287-1.422.6-.38 1.375-.616 2.326-.704.634-.06 1.27-.03 1.905.087.637.117 1.2.321 1.693.606a986.21 986.21 0 0 1-.553 2.075 5.545 5.545 0 0 0-1.458-.54 4.75 4.75 0 0 0-1.404-.094c-.462.042-.827.132-1.095.272-.269.141-.458.314-.57.523-.112.21-.158.433-.136.673a.936.936 0 0 0 .383.708c.228.167.52.287.875.36a22 22 0 0 0 1.18.21c.433.067.863.159 1.29.275.427.117.824.278 1.19.484.367.206.676.5.927.882.25.38.402.87.452 1.463a3.482 3.482 0 0 1-.32 1.819c-.269.564-.707 1.036-1.315 1.417-.608.378-1.388.61-2.341.686zM334.94 53.629a946.856 946.856 0 0 0-.807-9.395l-3.23.293-.2-2.174 8.793-.82c.068.73.136 1.463.202 2.194l-3.23.294c.286 3.14.556 6.278.81 9.419l-2.338.189z" class="colorfff svgShape"></path><path fill="#35d399" d="m268.796 130.789-31.432-.035a843.929 843.929 0 0 0-.578-32.167l31.411-1.164c.412 11.118.612 22.242.6 33.366z" class="color35d399 svgShape"></path><path fill="#ffffff" d="M250.36 123.377a804.539 804.539 0 0 0-5.888-5.965c.705-.75 1.409-1.501 2.112-2.254a789.063 789.063 0 0 1 3.73 3.753 808.316 808.316 0 0 0 9.974-10.83c.735.735 1.469 1.472 2.202 2.21a806.621 806.621 0 0 1-12.13 13.086z" class="colorfff svgShape"></path><path fill="#d4e8ff" d="m364.567 99.582-84.48 2.63c.07 2.229.13 4.457.183 6.685l84.498-1.993c-.058-2.441-.125-4.882-.2-7.322zM307.323 118.56l-26.873.33c.028 2.23.047 4.458.057 6.687l26.875-.129c-.01-2.296-.03-4.592-.059-6.889zM322.95 118.366c.028 2.336.048 4.672.06 7.008l24.387-.117a960.742 960.742 0 0 0-.061-7.191l-24.387.3z" class="colord4e8ff svgShape"></path><path fill="#35d399" d="m267.586 175.856-31.39-1.653a843.692 843.692 0 0 0 1.08-32.158l31.43.456a875.275 875.275 0 0 1-1.12 33.355z" class="color35d399 svgShape"></path><path fill="#ffffff" d="M249.555 167.503a790.93 790.93 0 0 0-5.573-6.262 811.27 811.27 0 0 0 2.226-2.143 778.668 778.668 0 0 1 3.532 3.941 812.188 812.188 0 0 0 10.518-10.303c.696.772 1.39 1.545 2.085 2.32a809.75 809.75 0 0 1-12.788 12.447z" class="colorfff svgShape"></path><path fill="#d4e8ff" d="m364.836 149.616-84.503-1.721c-.045 2.228-.1 4.457-.161 6.685l84.487 2.359c.069-2.44.127-4.881.177-7.323zM306.691 165.623l-26.854-1.053a886.135 886.135 0 0 1-.288 6.682l26.846 1.256c.107-2.295.206-4.59.296-6.885zM322.307 166.235a923.425 923.425 0 0 1-.301 7.002l24.361 1.14c.112-2.395.215-4.79.31-7.187l-24.37-.955z" class="colord4e8ff svgShape"></path><path fill="#35d399" d="m264.053 220.83-31.262-3.267a843.836 843.836 0 0 0 2.736-32.084l31.364 2.073a875.263 875.263 0 0 1-2.838 33.279z" class="color35d399 svgShape"></path><path fill="#d4e8ff" d="m362.528 199.612-84.302-6.071c-.16 2.225-.33 4.449-.506 6.672l84.254 6.707c.194-2.435.379-4.871.554-7.308zM303.635 212.615l-26.765-2.435a882.022 882.022 0 0 1-.631 6.665l26.745 2.636c.226-2.288.443-4.577.65-6.866zM319.198 214.03a926.96 926.96 0 0 1-.662 6.984l24.27 2.393c.236-2.388.463-4.777.68-7.167l-24.288-2.21z" class="colord4e8ff svgShape"></path><path fill="#e5eaf0" d="M226.466 43.16c.093 4.963.093 9.927 0 14.89-.015.802-.447 1.489-1.054 1.716a592.3 592.3 0 0 1-6.907 2.469c-.45.16-.813.577-.979 1.117a39.592 39.592 0 0 1-1.938 5.06 2.102 2.102 0 0 0-.07 1.61c.975 2.642 1.923 5.304 2.844 7.987.248.702.082 1.546-.412 2.068a358.493 358.493 0 0 1-9.272 9.441c-.506.488-1.206.543-1.724.137a416.206 416.206 0 0 0-5.955-4.559 1.243 1.243 0 0 0-1.316-.13 28.077 28.077 0 0 1-4.362 1.623c-.453.129-.84.499-1.032.997a356.145 356.145 0 0 1-3.015 7.625c-.276.665-.89 1.071-1.523.99l-11.78-1.489c-.634-.08-1.129-.608-1.239-1.291-.401-2.597-.831-5.18-1.29-7.751a1.539 1.539 0 0 0-.829-1.123 31.296 31.296 0 0 1-3.983-2.273 1.338 1.338 0 0 0-1.317-.114 398.074 398.074 0 0 1-6.687 2.91c-.586.255-1.262.073-1.664-.448a306.024 306.024 0 0 0-7.583-9.435 1.53 1.53 0 0 1-.14-1.76 305.705 305.705 0 0 0 3.716-6.345c.236-.421.253-.927.065-1.367a39.047 39.047 0 0 1-1.565-4.398 1.483 1.483 0 0 0-.913-.991c-2.257-.8-4.517-1.585-6.78-2.353a1.47 1.47 0 0 1-.988-1.415c.075-3.968.075-7.937 0-11.905a1.47 1.47 0 0 1 .988-1.415 554.752 554.752 0 0 0 6.78-2.353c.441-.155.779-.528.913-.991.433-1.506.962-2.97 1.565-4.398a1.55 1.55 0 0 0-.065-1.367 305.824 305.824 0 0 0-3.716-6.346 1.53 1.53 0 0 1 .14-1.76 307.574 307.574 0 0 0 7.583-9.434c.402-.521 1.077-.703 1.664-.448a394.57 394.57 0 0 1 6.687 2.91c.437.201.924.148 1.317-.114a31.422 31.422 0 0 1 3.983-2.274c.428-.203.737-.621.829-1.122.459-2.57.889-5.155 1.29-7.751.11-.686.605-1.212 1.239-1.292l11.78-1.488c.634-.08 1.247.324 1.523.99a356.149 356.149 0 0 1 3.015 7.625c.193.5.579.87 1.032.997a28.18 28.18 0 0 1 4.362 1.623c.437.206.926.17 1.316-.13a410.065 410.065 0 0 0 5.955-4.56c.519-.4 1.218-.35 1.724.138 3.129 3.07 6.22 6.217 9.272 9.44.494.521.66 1.364.412 2.069a364.18 364.18 0 0 1-2.844 7.986 2.105 2.105 0 0 0 .07 1.611 39.648 39.648 0 0 1 1.938 5.06c.166.537.529.958.979 1.117 2.305.807 4.607 1.63 6.907 2.468.607.228 1.039.917 1.054 1.717z" class="colore5eaf0 svgShape"></path><path fill="#b8bfce" d="M211.344 50.605c.01 16.62-12.198 29.04-25.74 27.785-13.58-1.255-23.553-13.68-23.58-27.785.027-14.107 10-26.53 23.58-27.784 13.542-1.257 25.75 11.164 25.74 27.784z" class="colorb8bfce svgShape"></path><path fill="#ffffff" d="M209.718 50.605c.008 15.444-11.32 27.051-23.976 25.955-12.69-1.093-22.069-12.705-22.092-25.955.023-13.252 9.402-24.86 22.092-25.954 12.657-1.098 23.984 10.513 23.976 25.954z" class="colorfff svgShape"></path><path fill="#30323e" d="M187.42 34.066c-.744.035-1.488.07-2.233.103a357.686 357.686 0 0 0-.267-5.021l2.232-.135c.101 1.684.191 3.368.269 5.053zM187.15 72.217l-2.231-.134c.1-1.674.19-3.348.267-5.022.745.035 1.49.07 2.234.103a358.658 358.658 0 0 1-.27 5.053zM172.047 49.406c.003.806.003 1.612 0 2.418l-4.472-.016c.003-.796.003-1.592 0-2.387l4.472-.015zM205.789 49.288c.003.885.003 1.77 0 2.655l-4.472-.015c.003-.875.003-1.75 0-2.624l4.472-.016zM189.488 50.605c0 1.763-1.27 3.178-2.818 3.161-1.549-.017-2.79-1.432-2.79-3.16 0-1.732 1.241-3.145 2.79-3.162 1.548-.018 2.818 1.397 2.818 3.161z" class="color30323e svgShape"></path><path fill="#30323e" d="M192.711 58.368a334.11 334.11 0 0 0-6.493-7.545c.003-4.342-.074-8.685-.23-13.024l.932-.033c.15 4.206.227 8.414.23 12.621a335.818 335.818 0 0 1 6.235 7.238l-.674.743z" class="color30323e svgShape"></path><path fill="#ffa49d" d="m168.182 139.985-35.39 14.1-23.01-8.29 4.83-19.11 19.86 7.63 32.88-12.01zM82.804 354.435l.746 11.696 5.509 4.948 11.81-5.863.248-10.78z" class="colorffa49d svgShape"></path><path fill="#e5eaf0" d="M103.899 370.38a.369.369 0 0 1-.373-.35c-.03-.474-.248-4.67 1.174-5.856.37-.309.824-.405 1.312-.279.612.159.844.55.93.85.48 1.667-2.403 5.105-2.734 5.491a.409.409 0 0 1-.309.145zm1.67-5.758a.575.575 0 0 0-.383.143c-.677.564-.902 2.559-.908 4.164 1.033-1.358 2.137-3.158 1.912-3.939-.034-.117-.11-.262-.404-.338a.872.872 0 0 0-.217-.03z" class="colore5eaf0 svgShape"></path><path fill="#585d83" d="M126.51 380.448H83.156l.39-14.315c4.704 1.946 12.109 1.616 17.318-.917l1.546 2.558 16.673 6.688 3.32 1.328a6.643 6.643 0 0 1 4.105 4.658z" class="color585d83 svgShape"></path><path fill="#30323e" d="m83.162 380.444-.126 2.906c-.039.906.664 1.65 1.579 1.65h40.165c1.009 0 1.865-.83 1.908-1.838l.031-.718a5.699 5.699 0 0 0-.002-.547 4.1 4.1 0 0 0-.03-.47c-.019-.17-.046-.333-.073-.496l-.107-.487H83.162z" class="color30323e svgShape"></path><path fill="#434c69" d="m103.35 372.716 11.497 4.23c1.27.467 2.756-.062 3.484-1.267l.753-1.217-16.676-6.688-.541 1.156c-.704 1.5-.029 3.22 1.483 3.786z" class="color434c69 svgShape"></path><path fill="#e5eaf0" d="M114.887 375.3c.152 0 .3-.09.37-.238l1.107-2.368a.377.377 0 0 0-.185-.512.405.405 0 0 0-.522.207l-1.106 2.368a.377.377 0 0 0 .336.543zM111.906 374.227c.152 0 .3-.09.37-.238l1.107-2.368a.377.377 0 0 0-.185-.512.406.406 0 0 0-.521.207l-1.107 2.368a.377.377 0 0 0 .336.543zM108.925 373.154c.152 0 .3-.09.37-.238l1.107-2.368a.377.377 0 0 0-.185-.512.405.405 0 0 0-.52.207l-1.108 2.367a.377.377 0 0 0 .336.544zM105.945 372.08c.152 0 .3-.089.37-.238l1.107-2.367a.377.377 0 0 0-.185-.513.405.405 0 0 0-.522.207l-1.106 2.368a.377.377 0 0 0 .336.543z" class="colore5eaf0 svgShape"></path><path fill="#e5eaf0" d="M103.946 369.983a.371.371 0 0 1-.321-.18.393.393 0 0 1 .034-.443c.305-.389 3.013-3.807 4.699-3.718.41.018.74.226.956.602.215.377.232.78.05 1.164-.738 1.562-4.868 2.469-5.337 2.567a.397.397 0 0 1-.081.008zm4.315-3.562c-.762 0-2.176 1.311-3.248 2.515 1.53-.427 3.31-1.124 3.647-1.836.07-.15.061-.288-.03-.447-.111-.195-.235-.226-.34-.23l-.029-.002z" class="colore5eaf0 svgShape"></path><path fill="#4b5173" d="M106.025 356.432c.065 3.213-27.021 3.213-27.043 0L68.001 251.78l-5.23-34.095-3.547-23.183h35.884l2.146.81 8.77 161.12z" class="color4b5173 svgShape"></path><path fill="#30323e" d="M76.39 198.018v10.599l-7.419 46.365-.97-3.202-5.23-34.095z" class="color30323e svgShape"></path><path fill="#ffa49d" d="m28.541 354.435.746 11.696 5.508 4.948 11.81-5.863.248-10.78z" class="colorffa49d svgShape"></path><path fill="#e5eaf0" d="M49.636 370.38a.369.369 0 0 1-.373-.35c-.03-.474-.249-4.67 1.174-5.856.37-.309.824-.405 1.312-.279.612.159.844.55.93.85.48 1.667-2.404 5.105-2.734 5.491a.409.409 0 0 1-.31.145zm1.67-5.758a.575.575 0 0 0-.384.143c-.676.564-.901 2.559-.907 4.164 1.032-1.358 2.137-3.158 1.912-3.939-.034-.117-.11-.262-.405-.338a.872.872 0 0 0-.216-.03z" class="colore5eaf0 svgShape"></path><path fill="#585d83" d="M72.246 380.448H28.894l.39-14.315c4.704 1.946 12.109 1.616 17.318-.917l1.546 2.558 16.672 6.688 3.32 1.328a6.643 6.643 0 0 1 4.106 4.658z" class="color585d83 svgShape"></path><path fill="#30323e" d="m28.899 380.444-.126 2.906c-.039.906.664 1.65 1.579 1.65h40.165c1.008 0 1.865-.83 1.908-1.838l.031-.718a5.699 5.699 0 0 0-.002-.547 4.098 4.098 0 0 0-.03-.47c-.019-.17-.046-.333-.073-.496l-.108-.487H28.9z" class="color30323e svgShape"></path><path fill="#434c69" d="m49.087 372.716 11.496 4.23c1.27.467 2.756-.062 3.485-1.267l.753-1.217-16.676-6.688-.541 1.156c-.704 1.5-.029 3.22 1.483 3.786z" class="color434c69 svgShape"></path><path fill="#e5eaf0" d="M60.624 375.3c.151 0 .3-.09.37-.238l1.106-2.368a.377.377 0 0 0-.185-.512.405.405 0 0 0-.52.207l-1.108 2.368a.377.377 0 0 0 .337.543zM57.643 374.227c.152 0 .3-.09.37-.238l1.107-2.368a.377.377 0 0 0-.185-.512.406.406 0 0 0-.521.207l-1.107 2.368a.377.377 0 0 0 .336.543zM54.662 373.154c.152 0 .3-.09.37-.238l1.107-2.368a.377.377 0 0 0-.185-.512.405.405 0 0 0-.521.207l-1.107 2.367a.377.377 0 0 0 .336.544zM51.682 372.08c.152 0 .3-.089.37-.238l1.106-2.367a.377.377 0 0 0-.185-.513.405.405 0 0 0-.52.207l-1.107 2.368a.377.377 0 0 0 .336.543z" class="colore5eaf0 svgShape"></path><path fill="#e5eaf0" d="M49.683 369.983a.371.371 0 0 1-.321-.18.393.393 0 0 1 .034-.443c.305-.389 3.013-3.807 4.698-3.718.411.018.742.226.957.602.214.377.232.78.05 1.164-.738 1.562-4.869 2.469-5.337 2.567a.397.397 0 0 1-.081.008zm4.315-3.562c-.762 0-2.176 1.311-3.248 2.515 1.529-.427 3.31-1.124 3.646-1.836.071-.15.062-.288-.03-.447-.11-.195-.234-.226-.34-.23l-.028-.002z" class="colore5eaf0 svgShape"></path><path fill="#6e302f" d="M66.648 81.91c1.17 5.14 4.501 9.3 7.143 13.724 4.162 6.971 6.806 15.219 7.51 23.387.485 5.678.002 11.458-2.205 15.962-2.2 4.502-6.324 7.523-10.835 6.831-3.087-.464-6.056-2.547-9.14-3.413-4.307-1.21-8.515.016-12.56 1.175-4.05 1.161-8.315 2.247-12.611.77-4.289-1.48-8.545-6.38-8.639-11.78-.036-1.798.52-3.561 1.397-5.27-2.595-2.531-3.713-6.992-3.31-10.735.41-3.813 2.132-6.996 4.106-9.693a53.338 53.338 0 0 1 1.62-2.097 9.185 9.185 0 0 1-.7-.738c-2.476-2.957-3.622-7.82-3.338-11.705.274-3.892 1.74-6.942 3.439-9.482 1.702-2.531 3.676-4.671 5.207-7.437 1.54-2.76 2.64-6.31 2.312-10.43l1.608 1.122c.358 1.501.687 3.01.984 4.52a19.07 19.07 0 0 1 1.934-3.479l1.688-1.324c2.32.655 3.337 3.56 4.344 6.351.229.63.464 1.256.692 1.885.233-.497.466-.994.709-1.484 1.646-3.395-7.734-9.82-5.73-13.278 2.167-3.75 5.406-6.546 9.297-7.124 5.966-.888 13.169 4.459 14.925 12.149 1.662 7.248-1.502 14.344.153 21.594z" class="color6e302f svgShape"></path><path fill="#6e302f" d="M100.21 121.453c-.064 2.818-3.088 4.51-5.71 5.557-6.753 2.672-14.3 4.898-21.168 2.552-4.21-1.435-7.739-4.503-10.34-8.107-2.591-3.618-4.342-7.769-5.796-11.966-1.82-5.229-3.232-10.866-1.982-16.261 1.043-4.46 3.804-8.301 5.988-12.336 2.185-4.022 3.852-8.761 2.491-13.147-.386-1.278-1.044-2.535-.96-3.877.083-1.33 1.38-2.71 2.622-2.238l18.437-5.88c2.76.226 3.695 4.452 3.617 7.208-.065 2.767 4.58 6.223 3.352 8.69-1.24 2.481-2.372 5.22-1.855 7.945.832 4.526 5.813 7.252 7.138 11.664 1.103 3.663-.554 7.508-1.92 11.084-1.356 3.575-2.38 7.848-.237 11.02.987 1.459 2.518 2.454 3.83 3.617 1.326 1.175 2.526 2.713 2.493 4.475z" class="color6e302f svgShape"></path><path fill="#4b5173" d="m32.304 194.506-8.515 161.928c-.059 3.213 27.684 3.213 27.704 0l23.8-161.928H32.303z" class="color4b5173 svgShape"></path><path fill="#3b6aeb" d="m120.996 124.175-6.714 26.46-8.5-1.9-13.7-3.06-2.23-.5-.25-30.26z" class="color3b6aeb svgShape"></path><path fill="#162ad4" d="m105.782 148.735-13.7-3.06 3.17-13.09 4.95-5.11 2.01 10.85s2.39 5.04 3.57 10.41z" class="color162ad4 svgShape"></path><path fill="#3b6aeb" d="M25.994 139.655c.01.23.022.46.044.691.384 6.418 1.305 13.517 2.337 19.968 1.81 11.366 3.95 20.735 3.982 20.922l-2.885 24.762-.713 6.111c0 7.439 72.487 7.439 72.487 0l-.45-13.473-1.01-29.907s.297-.626.714-1.723c1.316-3.544 3.807-12.156 1.272-21.668-2.622-9.775.242-20.571-3.675-26.002-2.951-4.092-16.863-6.254-17.806-6.418a27.27 27.27 0 0 0-1.383-.22c-7.855-.987-23.325-.79-32.003-.11-.516.034-17.236 2.634-19.99 12.036-1.064 3.62-1.24 9.008-.921 15.03z" class="color3b6aeb svgShape"></path><path fill="#162ad4" d="m32.357 181.236-2.885 24.762 45.454-5.09.581-19.025-38.728-7.822s12.542-18.438 14.001-24.198c1.46-5.76.623-11.536.623-11.536s-13.067 12.409-23.028 21.987c1.81 11.366 3.95 20.735 3.982 20.922z" class="color162ad4 svgShape"></path><path fill="#e5eaf0" d="M71.2 132.435c-7.657 1.709-23.597-11.238-24.303-19.853 8.69-.67 24.156-.858 32.01.115.428.053.9.126 1.392.21.565 7.748-3.843 18.354-9.1 19.528z" class="colore5eaf0 svgShape"></path><path fill="#ffa49d" d="M73.551 112.862c1.47 3.138.385 11.472-3.487 12.663-4.14 1.165-19.772-7.905-18.879-13.092l3.021-22.988.011.01c.298.332 8.788 10.11 17.416 11.469a20.592 20.592 0 0 0 .166 4.054c.005.15.02.297.046.446a54.06 54.06 0 0 0 .812 4.311c.282 1.218.604 2.348.894 3.127z" class="colorffa49d svgShape"></path><path fill="#f68b82" d="M72.657 109.735c-2.762-1.514-16.456-9.313-18.312-16.768l.01.01c.31.343 8.645 9.945 17.444 12 .005.15.02.298.046.447a54.06 54.06 0 0 0 .812 4.311z" class="colorf68b82 svgShape"></path><path fill="#ffa49d" d="M80.625 105.784c-2.246 1.029-4.599 1.212-6.959.835-9.684-1.524-19.216-12.496-19.544-12.874l-.01-.01c-7.192-2.14-13.859-12.22-9.71-16.164 5.717-5.38 10.991.198 10.991.198l2.087-14.675s15.142-12.762 22.878-9.852c2.675 1.022 4.968 6.946 6.31 14.5.098.539.187 1.097.275 1.657 2.216 14.155 1.204 32.931-6.318 36.385z" class="colorffa49d svgShape"></path><path fill="#6e302f" d="M89.477 62.92c-.48 3.148-7.156 3.968-13.223 4.163-3.588.11-6.957.02-8.714.073-4.45.135-5.086 4.416-5.284 8.087-.121 2.316-.07 4.381-.668 5.028-1.238 1.316-4.366-.997-5.644-2.035-.34-.287-.547-.473-.547-.473s-5.273-5.572-10.991-.188c-1.357 1.287-1.564 3.243-.967 5.356 1.24 4.341 5.835 9.37 10.673 10.8l.011.01s-10.529.277-15.97-9.467c-.935-1.655-1.708-3.613-2.268-5.919-.66-2.76-1.078-5.326-1.247-7.73.042-.032.083-.076.125-.11-1.682-8.117 2.913-18.513 11.041-22.765 9.66-5.056 20.818-10.863 34.968-.301 3.906 2.331 6.856 5.438 8.14 9.139.7 1.96.912 4.074.565 6.333z" class="color6e302f svgShape"></path><path fill="#a1172f" d="m80.684 92.858.018.158a5.303 5.303 0 0 1-2.209 4.775c-.706.49-1.53.822-2.43.929a5.285 5.285 0 0 1-5.286-2.778 5.041 5.041 0 0 1-.561-1.721l-.015-.122c-.013-.11.012-.211 0-.309 3.766-.902 7.315-1.444 10.41-1.232.024.096.06.19.073.3z" class="colora1172f svgShape"></path><path fill="#ffffff" d="m80.684 92.858.018.158c-3.666 1.65-7.046 1.745-10.486 1.205l-.015-.122c-.013-.11.012-.211 0-.309 3.766-.902 7.315-1.444 10.41-1.232.024.096.06.19.073.3z" class="colorfff svgShape"></path><path fill="#f43f62" d="M78.493 97.79c-.706.492-1.53.823-2.43.93a5.285 5.285 0 0 1-5.286-2.778 5.204 5.204 0 0 1 5.01-.593 5.278 5.278 0 0 1 2.706 2.442z" class="colorf43f62 svgShape"></path><path fill="#f68b82" d="M78.628 87.36a.375.375 0 0 1-.003-.75c.367-.003.73-.201 1.02-.558a2.192 2.192 0 0 0 .445-1.77c-.106-.518-.374-.98-.66-1.469-.102-.176-.205-.352-.3-.53-1.315-2.476-1.248-5.548-1.196-8.016.005-.207.218-.371.383-.367a.376.376 0 0 1 .367.383c-.051 2.382-.115 5.345 1.109 7.647.09.17.188.338.286.506.303.52.616 1.057.745 1.699a2.914 2.914 0 0 1-.598 2.39c-.433.534-1 .83-1.595.835h-.003z" class="colorf68b82 svgShape"></path><ellipse cx="83.484" cy="76.911" fill="#1e1d1e" rx="1.433" ry="2.49" transform="rotate(-6.75 83.484 76.911)" class="color1e1d1e svgShape"></ellipse><ellipse cx="70.894" cy="78.008" fill="#1e1d1e" rx="1.433" ry="2.49" transform="rotate(-6.75 70.894 78.008)" class="color1e1d1e svgShape"></ellipse><path fill="#1e1d1e" d="M80.909 73.001a.374.374 0 0 1-.322-.566c.034-.058.865-1.435 2.313-1.705.872-.163 1.762.109 2.643.804a.376.376 0 0 1-.465.589c-.703-.555-1.393-.776-2.036-.656-1.113.204-1.804 1.34-1.81 1.352a.376.376 0 0 1-.323.182zM67.738 74.052a.374.374 0 0 1-.322-.566c.034-.058.864-1.435 2.313-1.705.868-.163 1.761.108 2.644.803a.376.376 0 0 1-.465.59c-.704-.555-1.387-.776-2.037-.657-1.112.204-1.804 1.34-1.81 1.352a.376.376 0 0 1-.323.183z" class="color1e1d1e svgShape"></path><path fill="#ffa49d" d="M65.875 187.937c-.193.062-.308.088-.308.088s.115-.035.308-.088zM61.244 188.306c-.193.062-.308.088-.308.088s.115-.035.308-.088z" class="colorffa49d svgShape"></path><path fill="#f43f62" d="M47.112 180.861H194.88v11.003H47.112z" transform="rotate(-43.731 120.996 186.363)" class="colorf43f62 svgShape"></path><path fill="#a1172f" d="M30.379 163.371h147.768v11.003H30.379z" transform="rotate(-43.731 104.263 168.872)" class="colora1172f svgShape"></path><path fill="#dd2e4c" d="M38.746 171.016h147.768v13.203H38.746z" transform="rotate(-43.731 112.63 177.617)" class="colordd2e4c svgShape"></path><path fill="#30323e" d="M48.714 215.313h12.223v35.208H48.714z" transform="rotate(-43.731 54.826 232.917)" class="color30323e svgShape"></path><path fill="#fabe25" d="m62.579 249.862-11.742 11.233a3.575 3.575 0 0 1-5.053-.112l-19.398-20.276a3.575 3.575 0 0 1 .112-5.053l11.742-11.233 24.339 25.441z" class="colorfabe25 svgShape"></path><path fill="#ffa49d" d="m178.187 139.263-24.34-25.44 32.808-7.024z" class="colorffa49d svgShape"></path><path fill="#30323e" d="m183.832 117.622 2.823-10.822-10.937 2.34z" class="color30323e svgShape"></path><path fill="#ffa49d" d="m75.51 181.882-.583 19.028s-60.051 3.876-65.892-7.286c-5.842-11.161 4.09-37.292 4.09-37.292l25.415 4.618-5.887 15.722 42.856 5.21z" class="colorffa49d svgShape"></path><path fill="#3b6aeb" d="M29.642 120.51c-3.137 1.16-17.649 30.002-19.004 36.536-.422 1.844 28.168 12.24 28.59 10.395 0 0 14.569-22.636 11.83-31.146-4.865-15.122-21.416-15.784-21.416-15.784z" class="color3b6aeb svgShape"></path><path fill="#ffa49d" d="M99.335 185.138c-.136 3.114-7.041 4.315-7.041 4.315s6.096-.701 5.5 2.6c-.554 3.039-7.648 3.253-8.742 3.272.986.059 7.033.504 5.511 3.115-1.666 2.834-20.698 2.482-20.698 2.482l1.644-19.04s8.875-4.5 12.253-4.838l-5.412 5.178s10.906-3.775 11.693-.249c.272 1.224-.414 2.096-1.412 2.716 3.204-.78 6.778-1.271 6.704.449zM177.451 147.018c.48-1.72-2.43-7.46-4.945-6.3-2.804 1.276-.411 5.12-.411 5.12s-1.227-1.61-4.644-1.268c-3.033.304.15 5.18.89 6.232-.726-.913-3.821-4.565-6.368-2.311-1.497 1.32-.375 3.022 1.061 4.357-1.556-.857-3.276-1.239-3.934.623-1.307 3.732 3.04 7.751 5.294 7.402 4.698-.735 11.8-9.265 13.057-13.855z" class="colorffa49d svgShape"></path></svg></g></svg>
