<svg id="SvgjsSvg1001" width="256" height="256" xmlns="http://www.w3.org/2000/svg" version="1.1" xmlns:xlink="http://www.w3.org/1999/xlink" xmlns:svgjs="http://svgjs.com/svgjs"><defs id="SvgjsDefs1002"></defs><g id="SvgjsG1008"><svg xmlns="http://www.w3.org/2000/svg" viewBox="-50 164.9 493.4 512" width="256" height="256"><path fill="#79a1e8" d="M414.3 410.7c111.5 96.7-125.7 279.8-230.9 176.2C45.8 451.4-29.2 552.3-29.2 404.6s20.4-110 176.2-176.2c135.8-57.7 133.5 66.3 267.3 182.3z" class="color79a1e8 svgShape"></path><ellipse cx="132.8" cy="672.2" fill="#473cba" rx="53.6" ry="4.7" class="color473cba svgShape"></ellipse><path fill="#7693dd" d="M363.3 603.1 346.8 568l20.3-35 53.6.1v-13.8l-54.2-15.7c-27.5 0-51 17.2-60.4 41.4l-237.4-.3c-9.3-24.3-32.7-41.5-60.3-41.6l-54.2 15.6v13.8l52.4.1 20.2 35.1-15.4 35-57.2-13.9v17.5c11.5 17.8 31.5 26.8 54.2 26.8 27.5 0 54.1-14.4 67.4-42.4l223.1.3c12.6 29.8 37.9 42.5 65.4 42.5 22.7 0 44.8-12.6 56.3-30.4v-13.8l-57.3 13.8z" class="color7693dd svgShape"></path><path fill="#ffffff" d="M306 577.2 68.6 577c-9.3 24.3-32.8 41.5-60.4 41.4-22.7 0-42.7-11.8-54.2-29.6l57.3.1 20.3-35-20.2-35.1-57.3-.1c11.5-17.7 31.5-29.5 54.2-29.5 27.5 0 51 17.3 60.3 41.6l237.4.3c9.3-24.3 32.8-41.5 60.4-41.4 22.7 0 42.7 11.8 54.2 29.6l-57.3-.1-20.3 35 20.2 35.1 57.3.1c-11.5 17.7-31.5 29.5-54.2 29.5-27.6-.1-51-17.4-60.3-41.7z" class="colorfff svgShape"></path><path fill="#cfddf7" d="m343.1 554.2 20.3-35 57.3.1c-11.5-17.8-31.4-29.6-54.2-29.6-27.5 0-51 17.2-60.4 41.4h-25.4l-46.1 46.1 71.4.1c9.3 24.3 32.7 41.5 60.3 41.6 22.7 0 42.7-11.7 54.2-29.5l-57.3-.1-20.1-35.1z" class="colorcfddf7 svgShape"></path><path fill="#4b31aa" d="M284.6 558.2 90.1 558c-2.2 0-4.1-1.8-4-4.1 0-2.2 1.8-4 4.1-4l194.5.2c2.2 0 4.1 1.8 4 4.1 0 2.2-1.9 4-4.1 4z" class="color4b31aa svgShape"></path><path fill="#4b31aa" d="M420.6 537.2c1.1 0 2.1-.4 2.9-1.2.8-.8 1.2-1.8 1.2-2.9v-13.8c0-.8-.2-1.5-.6-2.2-12.7-19.7-34.2-31.4-57.6-31.4h-.1c-27.3 0-52.2 16.5-63 41.4l-231.9-.3c-10.7-25-35.7-41.6-63-41.6h-.1c-23.3 0-44.8 11.7-57.6 31.3-.4.7-.6 1.4-.6 2.2v13.8c0 1.1.4 2.1 1.2 2.9.8.8 1.8 1.2 2.9 1.2l50.1.1L20.5 565 9 584.8l-54.9-.1c-1.5 0-2.8.8-3.6 2.1-.3.6-.5 1.3-.5 1.9v17.5c0 .8.2 1.5.6 2.2 11.8 18.2 32.7 28.6 57.6 28.7h.1c29.8 0 56.3-16.2 69.8-42.4l218 .2c12.5 27.4 36.6 42.5 68.1 42.5h.1c23.5 0 46.9-12.6 59.6-32.2.4-.7.7-1.4.7-2.2v-13.8c0-.6-.2-1.3-.5-1.9-.7-1.3-2.1-2.1-3.6-2.1l-54.9-.1-11.8-20.5 15.6-27.7 51.2.3zm-410.5-6.6c-.7-1.3-2.1-2-3.5-2l-48.4-.1v-5.7l50.9.1 17.9 31-1.7 3-15.2-26.3zm406.4 70.5v.9c-11.3 16.5-32.1 27.5-52.2 27.5h-.1c-28.9 0-50.9-14.2-61.7-40-.6-1.5-2.1-2.5-3.7-2.5l-223.1-.3c-1.6 0-3 .9-3.7 2.3-11.9 25.1-35.7 40-63.6 40h-.2c-21.9 0-39.7-8.5-50.1-24v-4.5c12.9 13.9 30.9 21.9 50.2 22h.1c27.3 0 52.2-16.5 63-41.4l231.9.3c10.7 25 35.7 41.6 63 41.6h.1c19.2-.1 37.2-8.1 50.1-21.9zm-53.2-7.7 49.2.1a60.282 60.282 0 0 1-46.1 21.4h-.1c-24.9 0-47.6-15.7-56.5-39-.6-1.6-2.1-2.6-3.8-2.6L68.6 573c-1.7 0-3.2 1-3.8 2.6-8.9 23.2-31.6 38.8-56.5 38.8h-.1c-18 0-34.7-7.9-46.2-21.5l49.2.1c1.4 0 2.8-.8 3.5-2L35 556c.7-1.3.7-2.8 0-4.1l-20.2-35.1c-.7-1.3-2.1-2-3.5-2l-49.2-.1c11.4-13.5 28.2-21.4 46.1-21.4h.1c24.9 0 47.6 15.7 56.5 39 .6 1.6 2.1 2.6 3.8 2.6l237.4.3c1.7 0 3.2-1 3.8-2.6 8.9-23.2 31.6-38.8 56.5-38.8h.1c18 0 34.7 7.9 46.2 21.5l-49.2-.1c-1.4 0-2.8.8-3.5 2l-20.3 35c-.7 1.3-.7 2.8 0 4.1l20.2 35.1c.7 1.2 2 2 3.5 2zM367 529c-1.4 0-2.8.8-3.5 2l-14.6 25.2-1.2-2 17.9-31 50.9.1v5.7H367z" class="color4b31aa svgShape"></path><path fill="#473cba" d="m322.9 256.7-2.8-31.5h-32.2l-3.2 31.6c-4.3.9-8.5 2-12.5 3.4l-18.3-26.1-27.9 16.1 13.2 29.3c-3.1 2.8-6.1 5.7-8.8 8.9l-29.6-13.8-16.1 27.9 26.4 19c-1.3 3.9-2.4 8-3.3 12.2l-32.6 2.9v32.2l32.5 3.3c.9 4.4 2 8.8 3.4 13l-26.4 19 16.1 27.9 29.6-13.8c2.8 3.2 5.8 6.2 9 9L226 456.6l27.9 16.1 18.5-26.5c4 1.4 8.1 2.5 12.3 3.3l3.2 31.6h32.2l2.8-31.5c4.4-.8 8.6-2 12.8-3.4l18.4 25.5 27.9-16.1-13.2-28.4c3.4-3 6.7-6.2 9.7-9.6l28.1 12.7 16.1-27.9-25.2-17.7c1.5-4.3 2.6-8.7 3.5-13.2l30.5-3.1v-32.2l-30.6-2.7c-.8-4.2-2-8.3-3.3-12.3l25.2-17.7-16.4-27.5h-13.3l-14.8 12.7c-3-3.4-6.1-6.6-9.5-9.5l13.1-28.1-27.9-16.2h-13.3l-17.8 21.8zm-16.2 127.2c-18.9 1.5-34.6-14.2-33.1-33.1 1.2-14.9 13.2-27 28.1-28.1 18.9-1.5 34.6 14.2 33.1 33.1-1.1 14.8-13.2 26.9-28.1 28.1z" class="color473cba svgShape"></path><path fill="#d7ecf9" d="M418 368.7v-32.2l-30.6-2.7c-.8-4.2-2-8.3-3.3-12.3l25.2-17.7-16.2-27.8-28.1 12.6c-3-3.4-6.1-6.6-9.5-9.5l13.1-28.1-27.9-16.1-18.1 25.2c-4.2-1.4-8.6-2.6-13-3.4l-2.8-31.5h-32.2l-3.2 31.6c-4.3.9-8.5 2-12.5 3.4l-18.3-26.1-27.9 16.1 13.2 29.3c-3.1 2.8-6.1 5.7-8.8 8.9l-29.6-13.8-16.1 27.9 26.4 19c-1.3 3.9-2.4 8-3.3 12.2l-32.6 2.9v32.2l32.5 3.3c.9 4.4 2 8.8 3.4 13l-26.4 19 16.1 27.9 29.6-13.8c2.8 3.2 5.8 6.2 9 9l-13.3 29.6 27.9 16.1 18.5-26.5c4 1.4 8.1 2.5 12.3 3.3l3.2 31.6h32.2l2.8-31.5c4.4-.8 8.6-2 12.8-3.4l18.4 25.5 27.9-16.1-13.2-28.4c3.4-3 6.7-6.2 9.7-9.6l28.1 12.7 16.1-27.9-25.5-17.7c1.5-4.3 2.6-8.7 3.5-13.2l30.5-3zm-124.6 15.2c-18.9 1.5-34.6-14.2-33.1-33.1 1.2-14.9 13.2-27 28.1-28.1 18.9-1.5 34.6 14.2 33.1 33.1-1.1 14.8-13.2 26.9-28.1 28.1z" class="colord7ecf9 svgShape"></path><path fill="#4b31aa" d="m194.6 333.7.6-3-20.3 1.8c-1.8.2-3.3 1.5-3.6 3.2l23.3-2zm-19.7 39.1 20.1 2c-.2-.9-.4-1.9-.6-2.8l-23.1-2.3c.4 1.6 1.8 2.9 3.6 3.1z" class="color4b31aa svgShape"></path><path fill="none" d="M422.5 303.9h-13.3M398.1 321l-14.1.5M431.3 336.5H418"></path><path fill="#4b31aa" d="M431.3 340.6H418c-2.2 0-4.1-1.8-4.1-4.1s1.8-4.1 4.1-4.1h13.3c2.2 0 4.1 1.8 4.1 4.1-.1 2.3-1.9 4.1-4.1 4.1z" class="color4b31aa svgShape"></path><path fill="none" d="M431.3 368.7H418"></path><path fill="#4b31aa" d="M431.3 372.8H418c-2.2 0-4.1-1.8-4.1-4.1s1.8-4.1 4.1-4.1h13.3c2.2 0 4.1 1.8 4.1 4.1-.1 2.3-1.9 4.1-4.1 4.1z" class="color4b31aa svgShape"></path><path fill="none" d="m422.5 402.6-14.8-.6M397.3 384.9H384M406.4 430.5h-13.3M368.7 427.5h-13.3M381.9 455.8h-13.3"></path><path fill="#4b31aa" d="M381.9 459.9h-13.3c-2.2 0-4.1-1.8-4.1-4.1s1.8-4.1 4.1-4.1h13.3c2.2 0 4.1 1.8 4.1 4.1s-1.8 4.1-4.1 4.1z" class="color4b31aa svgShape"></path><path fill="none" d="M354 471.9h-13.3M253.9 472.7h-13.6"></path><path fill="#ffffff" d="M97.4 408.2v-12.7l-12.1-1.1c-.3-1.7-.8-3.3-1.3-4.9l10-7-6.4-11-11.1 5c-1.2-1.3-2.4-2.6-3.8-3.8l5.2-11.1-11-6.4-7.2 10c-1.7-.6-3.4-1-5.2-1.4l-1.1-12.5H40.6l-1.3 12.5c-1.7.3-3.4.8-5 1.3L27 354.8l-11 6.4 5.2 11.6c-1.2 1.1-2.4 2.3-3.5 3.5L6 370.8l-6.4 11 10.5 7.5c-.5 1.6-1 3.2-1.3 4.8L-4 395.4v12.7l12.9 1.3c.3 1.8.8 3.5 1.4 5.1L-.2 422l6.4 11 11.7-5.5c1.1 1.3 2.3 2.4 3.6 3.6L16.1 443l11 6.4 7.3-10.5c1.6.5 3.2 1 4.9 1.3l1.3 12.5h12.7l1.1-12.5c1.7-.3 3.4-.8 5.1-1.3l7.3 10.1 11-6.4-5.2-11.2c1.4-1.2 2.6-2.5 3.8-3.8l11.1 5 6.4-11-10-7c.6-1.7 1-3.4 1.4-5.2l12.1-1.2zm-49.3 6c-7.5.6-13.7-5.6-13.1-13.1.5-5.9 5.2-10.7 11.1-11.1 7.5-.6 13.7 5.6 13.1 13.1-.5 5.8-5.2 10.6-11.1 11.1z" class="colorfff svgShape"></path><path fill="#4b31aa" d="M53.4 456.8H40.6c-2.1 0-3.8-1.6-4-3.6l-.9-8.9-5.2 7.5c-1.2 1.7-3.5 2.2-5.3 1.2l-11-6.4c-1.8-1-2.5-3.3-1.7-5.2l3.8-8.4-8.3 3.9c-1.9.9-4.2.2-5.2-1.6l-6.4-11c-1-1.8-.5-4.1 1.1-5.3l7.9-5.7-9.7-1c-2.1-.2-3.6-1.9-3.6-4v-12.7c0-2.1 1.6-3.9 3.7-4l9.2-.8-7.4-5.4c-1.7-1.2-2.2-3.5-1.1-5.3l6.4-11c1.1-1.8 3.3-2.5 5.2-1.6l8.3 3.8-3.7-8.2c-.9-1.9-.1-4.1 1.7-5.2l11-6.4c1.8-1.1 4.1-.5 5.3 1.2l5.2 7.4.9-9c.2-2.1 2-3.6 4-3.6h12.7c2.1 0 3.9 1.6 4 3.7l.8 9.2 5.3-7.4c1.2-1.7 3.5-2.2 5.3-1.1l11 6.4c1.8 1.1 2.5 3.3 1.6 5.2l-3.8 8.2 8.2-3.7c1.9-.9 4.1-.1 5.2 1.7l6.4 11c1.1 1.8.5 4.1-1.2 5.3l-6.9 4.8 8.4.7c2.1.2 3.7 1.9 3.7 4v12.7c0 2.1-1.6 3.8-3.6 4l-8.9.9 7.4 5.2c1.7 1.2 2.2 3.5 1.2 5.3l-6.4 11c-1 1.8-3.3 2.5-5.2 1.7l-8.3-3.7 3.9 8.4c.9 1.9.2 4.2-1.6 5.2l-11 6.4c-1.8 1-4.1.5-5.3-1.1l-5.3-7.4-.8 9c-.4 2.1-2.1 3.7-4.2 3.7zm-9.1-8.1h5.4l.8-8.8c.2-1.8 1.5-3.3 3.3-3.6 1.5-.3 3.1-.7 4.5-1.2 1.7-.6 3.5 0 4.6 1.5l5.1 7.1 4.6-2.7-3.7-7.9c-.8-1.6-.3-3.6 1-4.8 1.2-1.1 2.4-2.2 3.4-3.4 1.2-1.3 3.1-1.8 4.7-1l7.8 3.5 2.7-4.6-6.9-4.9c-1.5-1-2.1-2.9-1.5-4.6.5-1.5.9-3.1 1.2-4.7.3-1.8 1.8-3.1 3.6-3.3l8.4-.8v-5.4l-8.4-.7c-1.8-.2-3.3-1.5-3.6-3.2-.3-1.5-.7-2.9-1.2-4.4-.6-1.7 0-3.6 1.5-4.6l6.9-4.9-2.7-4.6-7.8 3.5c-1.6.7-3.5.3-4.7-1-1-1.2-2.2-2.3-3.4-3.4-1.4-1.2-1.8-3.1-1-4.8l3.6-7.8-4.6-2.7-5 7c-1 1.4-2.9 2-4.6 1.5-1.5-.5-3-.9-4.6-1.2-1.8-.3-3.1-1.8-3.3-3.6l-.8-8.8h-5.4l-.9 8.9c-.2 1.8-1.5 3.2-3.2 3.6-1.5.3-3 .7-4.4 1.2-1.7.6-3.6 0-4.6-1.5l-5.1-7.3-4.6 2.7 3.7 8.3c.7 1.6.3 3.5-1 4.7-1.1 1-2.2 2-3.1 3.1-1.2 1.4-3.1 1.8-4.8 1l-8.3-3.9-2.7 4.6 7.5 5.4c1.4 1 2 2.9 1.5 4.6-.5 1.4-.9 2.8-1.2 4.3-.4 1.8-1.8 3.1-3.6 3.2l-9.2.8v5.4l9.2.9c1.8.2 3.2 1.5 3.6 3.3.3 1.6.7 3.1 1.2 4.6.6 1.7 0 3.6-1.5 4.6l-7.5 5.4 2.7 4.6 8.3-3.9c1.6-.8 3.6-.4 4.8 1 1 1.1 2.1 2.2 3.2 3.2 1.3 1.2 1.8 3.1 1 4.7l-3.8 8.4L26 444l5.2-7.4c1-1.5 2.9-2.1 4.6-1.5 1.4.5 2.9.9 4.4 1.2 1.7.4 3.1 1.8 3.2 3.6l.9 8.8zm2.8-30.4c-4.3 0-8.4-1.7-11.5-4.8-3.4-3.4-5.1-8-4.7-12.8.6-7.9 7-14.2 14.9-14.9 4.7-.4 9.4 1.3 12.8 4.7 3.4 3.4 5.1 8 4.7 12.8-.6 7.9-7 14.2-14.9 14.9-.4 0-.9.1-1.3.1zm0-24.4h-.7c-3.9.3-7.1 3.5-7.4 7.4-.2 2.4.7 4.7 2.3 6.4 1.7 1.7 4 2.5 6.4 2.4 3.9-.3 7.1-3.5 7.4-7.4.2-2.4-.7-4.7-2.3-6.4-1.5-1.5-3.6-2.4-5.7-2.4z" class="color4b31aa svgShape"></path><path fill="#fbb03b" d="M158.8 647.6H128c-12.7 0-23.1-10.3-23.1-23.1l-.1-133.3c0-12.7 10.3-23.1 23.1-23.1h30.8c12.7 0 23.1 10.3 23.1 23.1l.1 133.3c0 12.8-10.3 23.1-23.1 23.1z" class="colorfbb03b svgShape"></path><path fill="#79a1e8" d="M146.4 448.9h-17.1l-.1-202.2h17.1z" class="color79a1e8 svgShape"></path><path fill="#ffffff" d="M134.4 448.9h-17.1l-.1-202.2h17.1z" class="colorfff svgShape"></path><path fill="#79a1e8" d="m151.2 168.9-29.9.1-11.9 56.6 9.5 27.1h35.9l8.4-27.2z" class="color79a1e8 svgShape"></path><path fill="#ffffff" d="M138.9 169H109l-12 56.6 9.6 27.1h35.9l8.4-27.2z" class="colorfff svgShape"></path><path fill="#f9d015" d="M137.7 647.7h-30.8c-12.7 0-23.1-10.3-23.1-23.1l-.1-133.3c0-12.7 10.3-23.1 23.1-23.1h30.8c12.7 0 23.1 10.3 23.1 23.1l.1 133.3c0 12.7-10.3 23.1-23.1 23.1z" class="colorf9d015 svgShape"></path><path fill="#fbb03b" d="M86.3 587.1v39.8c0 10.5 8.6 19.1 19.1 19.1h33.8c10.5 0 19.1-8.6 19.1-19.1l-.1-111.7-71.9 71.9z" class="colorfbb03b svgShape"></path><path fill="#4b31aa" d="M108.7 626.1c-2.2 0-4.1-1.8-4.1-4.1l-.1-128.2c0-2.2 1.8-4.1 4.1-4.1 2.2 0 4.1 1.8 4.1 4.1l.1 128.2c-.1 2.3-1.9 4.1-4.1 4.1zm25.6 0c-2.2 0-4.1-1.8-4.1-4.1l-.1-128.2c0-2.2 1.8-4.1 4-4.1s4.1 1.8 4.1 4.1l.1 128.2c.1 2.3-1.8 4.1-4 4.1z" class="color4b31aa svgShape"></path><path fill="#fbb03b" d="M122 442.6h42.7v25.6H122z" class="colorfbb03b svgShape"></path><path fill="#f9d015" d="M100.9 442.6h42.7v25.6h-42.7z" class="colorf9d015 svgShape"></path><path fill="#cfddf7" d="M418 368.7v-32.2l-30.6-2.7c-.8-4.2-2-8.3-3.3-12.3l25.2-17.7-16.2-27.8-28.1 12.6-3.9-4.2-47.8 47.8c5.7 6.1 8.9 14.4 8.2 23.5-1.2 14.9-13.2 27-28.1 28.1-9.1.7-17.4-2.5-23.5-8.2l-47.8 47.8c1.3 1.2 2.6 2.5 3.9 3.6l-13.3 29.6 27.9 16.1 18.5-26.5c4 1.4 8.1 2.5 12.3 3.3l3.2 31.6h32.2l2.8-31.5c4.4-.8 8.6-2 12.8-3.4l18.4 25.5 27.9-16.1-13.2-28.4c3.4-3 6.7-6.2 9.7-9.6l28.1 12.7 16.1-27.9-25.4-17.5c1.5-4.3 2.6-8.7 3.5-13.2l30.5-3z" class="colorcfddf7 svgShape"></path><path fill="#4b31aa" d="M109 164.9c-1.9 0-3.6 1.3-4 3.2l-11.9 56.6c-.2.7-.1 1.5.1 2.2l9.6 27.1c.6 1.6 2.1 2.7 3.8 2.7h6.5l.1 181.8h-12.4c-1.1 0-2.1.4-2.9 1.2-.8.8-1.2 1.8-1.2 2.9v23.5c-3.4 1.3-6.5 3.4-9.1 6-5.1 5.1-7.9 11.9-7.9 19.2l.1 133.3c0 7.2 2.8 14.1 8 19.2 5.1 5.1 11.9 7.9 19.2 7.9h51.9c15 0 27.1-12.2 27.1-27.1l-.1-133.3c0-7.2-2.8-14.1-8-19.2-2.7-2.7-5.8-4.7-9.2-6v-23.5c0-1.1-.4-2.1-1.2-2.9-.8-.8-1.8-1.2-2.9-1.2h-14.2l-.1-181.8h4.5c1.8 0 3.3-1.2 3.9-2.9l8.4-27.2c.2-.7.2-1.4.1-2l-12-56.6c-.4-1.9-2-3.2-4-3.2l-42.2.1zm51.6 281.7v17.5h-13v-17.5h13zm-18.2-8.1h-3.9l-.1-181.8h3.9l.1 181.8zM159 225.3l-7.2 23.3H148l6.7-21.9c.2-.7.2-1.4.1-2l-11-51.7h4l11.2 52.3zm-57.8 0 11-52.3H135.5l11.1 52.3-7.2 23.3h-30l-8.2-23.3zm24.7 31.5h4.3l.1 181.8h-9l-.1-181.8h4.7zm13.6 189.8v17.5h-34.6v-17.5h34.6zM151.2 638c-3.6 3.6-8.4 5.6-13.4 5.6H107c-5.1 0-9.8-2-13.4-5.6-3.6-3.6-5.6-8.4-5.6-13.4l-.1-133.3c0-10.5 8.5-19 19-19h30.8c5.1 0 9.8 2 13.4 5.6 3.6 3.6 5.6 8.4 5.6 13.4l.1 133.3c-.1 5.1-2 9.8-5.6 13.4zm7.6 5.6H157c5-5.1 7.8-11.9 7.8-19l-.1-133.3c0-7.2-2.8-13.9-7.8-19h1.8c5.1 0 9.8 2 13.4 5.6 3.6 3.6 5.6 8.4 5.6 13.4l.1 133.3c0 10.4-8.5 19-19 19z" class="color4b31aa svgShape"></path><path fill="#4b31aa" d="m431.6 332.5-27.7-2.4c-.5-2.3-1.2-4.7-1.9-6.9l22.7-15.9c1.7-1.2 2.2-3.5 1.2-5.3l-16-28c-.7-1.3-2.1-2-3.5-2h-13.3c-.5 0-1.1.1-1.6.3l-16.2 7.3-1.5-1.5 11.8-25.4c.9-1.9.2-4.2-1.6-5.2l-27.9-16.1c-.6-.4-1.3-.5-2-.5h-13.3c-1.2 0-2.4.5-3.1 1.5l-11.5 14.1-1.9-21.6c-.2-2.1-1.9-3.7-4-3.7h-45.5c-2.1 0-3.8 1.6-4 3.6l-2.3 22.8-11.1-15.8c-.8-1.1-2-1.7-3.2-1.7h-13.8c-.6.1-1.1.2-1.6.5l-27.9 16.1c-1.8 1-2.5 3.3-1.7 5.2l12 26.6-.7.7-17.8-8.3c-.5-.2-1.1-.4-1.6-.4h-13.5c-1.4 0-2.7.8-3.4 2l-16.1 27.9c-1 1.8-.5 4.1 1.1 5.3l24.1 17.3c-.7 2.2-1.3 4.5-1.8 6.8l-29.6 2.6c-2.1.2-3.7 1.9-3.7 4v32.2c0 2.1 1.6 3.8 3.6 4l29.5 3c.6 2.6 1.3 5.2 2 7.7L169 400.7c-1.7 1.2-2.2 3.5-1.1 5.3l16.1 27.9c.7 1.2 2 1.9 3.3 2h13.6c.5 0 1.1-.1 1.6-.4l17.8-8.3c.3.3.6.6.9.8L209 455c-.9 1.9-.1 4.1 1.7 5.2l27.9 16.1c.3.1.5.3.8.3.3.1.6.2.9.2h14.1c1.1-.1 2.2-.7 2.9-1.7l11.1-15.8 2.3 22.4c.2 2.1 2 3.6 4 3.6h45.5c2.1 0 3.9-1.6 4-3.7l2-22.9 11.3 15.6c.8 1.1 2 1.7 3.2 1.7H354.2c.6 0 1.3-.2 1.8-.5l27.9-16.1c1.8-1.1 2.5-3.3 1.6-5.2l-11.9-25.7c.6-.5 1.1-1.1 1.7-1.6l16.2 7.3c.5.2 1 .3 1.6.4H406.8c1.3-.1 2.5-.8 3.2-2l16.1-27.9c1.1-1.8.5-4.1-1.2-5.3l-22.7-15.9c.8-2.6 1.5-5.2 2.1-7.8l27.5-2.8c2.1-.2 3.6-2 3.6-4v-32.2c-.1-2.3-1.7-4-3.8-4.2zM404.1 280l11.4 19.8h-4L400.1 280h4zm-31.5-29.7 4.1 2.4-10.4 22.4h-4.4l10.4-22.3c.3-.8.4-1.7.3-2.5zm-56.2-21 2.2 25.4c-1.8-.5-3.5-1-5.3-1.4l-2.1-24.1 5.2.1zm-63.7 10.2 10.6 15.2c-.9.3-1.9.5-2.8.8l-10.2-14.6 2.4-1.4zm0 227.9-2.4-1.4 10.4-14.9c.9.3 1.9.6 2.8.8l-10.8 15.5zm63.7 9.8h-5.2l2.1-24.1c1.8-.4 3.5-.9 5.3-1.3l-2.2 25.4zm60.3-23-4.1 2.4c.1-.8.1-1.6-.3-2.4l-10.5-22.6h4.4l10.5 22.6zm39-47.8-10.9 18.9-3.1-1.4 10.2-17.6 3.8.1zm-1.8-41.3-26.8 2.7c-1.8.2-3.2 1.5-3.6 3.3-.8 4.3-1.9 8.5-3.3 12.6-.6 1.7 0 3.6 1.5 4.6l22.2 15.5-12.4 21.5-24.7-11.1c-1.6-.7-3.5-.3-4.7 1-2.9 3.3-6 6.4-9.3 9.2-1.4 1.2-1.8 3.1-1 4.8l11.6 25-21.5 12.4-16.2-22.6c-1-1.4-2.9-2-4.6-1.5-4 1.3-8.1 2.4-12.3 3.2-1.8.3-3.1 1.8-3.3 3.6l-2.4 27.8h-24.8l-2.8-28c-.2-1.8-1.5-3.2-3.2-3.6-4-.8-8-1.9-11.8-3.2-1.7-.6-3.6 0-4.6 1.5l-16.4 23.4-21.6-12.2 11.8-26.2c.7-1.6.3-3.5-1-4.7-3-2.7-5.9-5.6-8.6-8.6-1.2-1.4-3.1-1.8-4.8-1l-26.2 12.2-12.4-21.5 23.5-16.9c1.4-1 2-2.9 1.5-4.6-1.4-4-2.5-8.2-3.3-12.4-.3-1.8-1.8-3.1-3.6-3.3l-28.8-2.9v-24.8l28.9-2.5c1.8-.2 3.3-1.5 3.6-3.2.8-3.9 1.9-7.9 3.1-11.7.6-1.7 0-3.6-1.5-4.6l-23.5-16.9 12.4-21.5 26.2 12.2c1.6.8 3.6.4 4.8-1 2.6-3 5.5-5.9 8.5-8.5 1.3-1.2 1.7-3.1 1-4.7L217.8 252l21.5-12.4 16.2 23.1c1 1.5 2.9 2.1 4.6 1.5 3.9-1.3 8-2.4 12-3.3 1.7-.4 3.1-1.8 3.2-3.6l2.8-28h24.8l2.4 27.8c.2 1.8 1.5 3.3 3.3 3.6 4.2.8 8.4 1.9 12.5 3.3 1.7.6 3.6 0 4.6-1.5l16-22.2 21.5 12.4-11.5 24.7c-.8 1.6-.3 3.6 1 4.8 3.2 2.8 6.3 5.9 9.1 9.1 1.2 1.3 3.1 1.8 4.7 1l24.7-11.1 12.4 21.5-22.2 15.5c-1.5 1-2.1 2.9-1.5 4.6 1.3 3.8 2.4 7.8 3.2 11.8.4 1.8 1.8 3.1 3.6 3.2l26.9 2.4.3 24.9zM396 375c-.5 2-1 3.9-1.6 5.9h-4.9c.5-1.8 1-3.6 1.4-5.4l5.1-.5zm-.3-44.5-5.1-.4c-.4-1.6-.8-3.1-1.2-4.7l4.8-.2c.6 1.7 1.1 3.5 1.5 5.3zm31.5 34.6-5.2.5v-25.8l5.2.5v24.8z" class="color4b31aa svgShape"></path><path fill="#4b31aa" d="M315.5 328.6c-7.2-7.2-17.2-10.9-27.4-10.1-16.8 1.3-30.5 15-31.8 31.9-.8 10.2 2.9 20.2 10.1 27.4 6.6 6.6 15.4 10.2 24.6 10.2.9 0 1.8 0 2.8-.1 16.8-1.3 30.5-15 31.9-31.9.7-10.2-3-20.1-10.2-27.4zm-51.1 22.5c.7-9.4 6.5-17.5 14.6-21.6-5.3 5.6-8.8 12.9-9.4 21-.8 9.8 2.6 19.5 9.3 26.6-2.5-1.3-4.8-2.9-6.8-4.9-5.5-5.6-8.4-13.3-7.7-21.1zm53.1 4.3c-.9 11.4-9.1 20.8-19.9 23.6-4.6-1.2-8.8-3.5-12.2-7-5.5-5.5-8.3-13.2-7.7-21 .9-11.4 9.1-20.8 19.9-23.6 4.6 1.2 8.8 3.6 12.2 7 5.5 5.5 8.3 13.2 7.7 21z" class="color4b31aa svgShape"></path><path fill="#fbb03b" d="M291 409c-30.7 0-55.7-25-55.7-55.7s25-55.7 55.7-55.7 55.7 25 55.7 55.7c0 30.7-25 55.7-55.7 55.7zm0-90.2c-19 0-34.4 15.5-34.4 34.4s15.5 34.4 34.4 34.4 34.4-15.5 34.4-34.4-15.4-34.4-34.4-34.4z" class="colorfbb03b svgShape"></path></svg></g></svg>